<svg width="14" height="14" viewBox="0 0 14 14" fill="none" xmlns="http://www.w3.org/2000/svg">
<g clip-path="url(#clip0_656_18923)">
<path d="M8.75 10.5002C8.75 10.2763 8.83545 10.0523 9.00635 9.88168L11.8891 7.0002L9.00703 4.11816C8.66523 3.77637 8.66523 3.22266 9.00703 2.88086C9.34883 2.53906 9.90254 2.53906 10.2443 2.88086L13.7443 6.38086C14.0861 6.72266 14.0861 7.27637 13.7443 7.61816L10.2443 11.1182C9.90254 11.46 9.34883 11.46 9.00703 11.1182C8.83477 10.9486 8.75 10.7244 8.75 10.5002Z" fill="white"/>
<path opacity="0.4" d="M11.0141 7.875H0.875C0.391289 7.875 0 7.48398 0 6.97539C0 6.4668 0.391289 6.125 0.875 6.125H11.0141L11.8891 7L11.0141 7.875Z" fill="white"/>
</g>
<defs>
<clipPath id="clip0_656_18923">
<rect width="14" height="14" fill="white"/>
</clipPath>
</defs>
</svg>
