<svg width="80" height="80" viewBox="0 0 80 80" fill="none" xmlns="http://www.w3.org/2000/svg">
<circle cx="40" cy="40" r="40" fill="#651FFF"/>
<g clip-path="url(#clip0_783_526)">
<path d="M29.411 34.8391C28.5328 33.9609 28.5328 32.5363 29.411 31.6574L38.411 22.6574C38.8469 22.2197 39.4235 22 40 22C40.5766 22 41.1518 22.2197 41.5905 22.6592L50.5905 31.6592C51.4687 32.5374 51.4687 33.9619 50.5905 34.8408C49.7116 35.719 48.2871 35.7197 47.4089 34.8409L42.25 29.6852V46.75C42.25 47.9924 41.2425 49 40 49C38.7576 49 37.75 47.9924 37.75 46.75V29.6852L32.5891 34.8391C31.7102 35.718 30.2899 35.718 29.411 34.8391Z" fill="white"/>
<path opacity="0.4" d="M55.75 46.75H44.5C44.5 49.2355 42.4855 51.25 40 51.25C37.5145 51.25 35.5 49.2355 35.5 46.75H24.25C23.0076 46.75 22 47.7576 22 49V55.75C22 56.9924 23.0076 58 24.25 58H55.75C56.9924 58 58 56.9924 58 55.75V49C58 47.7555 56.9945 46.75 55.75 46.75ZM52.375 54.0625C51.4469 54.0625 50.6875 53.3031 50.6875 52.375C50.6875 51.4469 51.4469 50.6875 52.375 50.6875C53.3031 50.6875 54.0625 51.4469 54.0625 52.375C54.0625 53.3031 53.3031 54.0625 52.375 54.0625Z" fill="white"/>
</g>
<defs>
<clipPath id="clip0_783_526">
<rect width="36" height="36" fill="white" transform="translate(22 22)"/>
</clipPath>
</defs>
</svg>
