<svg width="22" height="14" viewBox="0 0 22 14" fill="none" xmlns="http://www.w3.org/2000/svg">
<g clip-path="url(#clip0_656_19490)">
<path d="M14.001 10.5002C14.001 10.2763 14.1312 10.0523 14.3916 9.88168L18.7837 7.0002L14.3926 4.11816C13.8718 3.77637 13.8718 3.22266 14.3926 2.88086C14.9134 2.53906 15.757 2.53906 16.2778 2.88086L21.6105 6.38086C22.1312 6.72266 22.1312 7.27637 21.6105 7.61816L16.2778 11.1182C15.757 11.46 14.9134 11.46 14.3926 11.1182C14.1301 10.9486 14.001 10.7244 14.001 10.5002Z" fill="#00E5FF"/>
<path opacity="0.4" d="M17.4506 7.875H2.00248C1.26549 7.875 0.669312 7.48398 0.669312 6.97539C0.669312 6.4668 1.26549 6.125 2.00248 6.125H17.4506L18.7837 7L17.4506 7.875Z" fill="#00E5FF"/>
</g>
<defs>
<clipPath id="clip0_656_19490">
<rect width="21.3307" height="14" fill="white" transform="translate(0.669312)"/>
</clipPath>
</defs>
</svg>
