<svg width="21" height="14" viewBox="0 0 21 14" fill="none" xmlns="http://www.w3.org/2000/svg">
<g clip-path="url(#clip0_656_19498)">
<path d="M13.1956 10.5002C13.1956 10.2763 13.3226 10.0523 13.5766 9.88168L17.862 7.0002L13.5777 4.11816C13.0695 3.77637 13.0695 3.22266 13.5777 2.88086C14.0858 2.53906 14.9089 2.53906 15.417 2.88086L20.62 6.38086C21.1281 6.72266 21.1281 7.27637 20.62 7.61816L15.417 11.1182C14.9089 11.46 14.0858 11.46 13.5777 11.1182C13.3216 10.9486 13.1956 10.7244 13.1956 10.5002Z" fill="#34D399"/>
<path opacity="0.4" d="M16.5612 7.875H1.48874C0.769669 7.875 0.187988 7.48398 0.187988 6.97539C0.187988 6.4668 0.769669 6.125 1.48874 6.125H16.5612L17.862 7L16.5612 7.875Z" fill="#34D399"/>
</g>
<defs>
<clipPath id="clip0_656_19498">
<rect width="20.8121" height="14" fill="white" transform="translate(0.187988)"/>
</clipPath>
</defs>
</svg>
