<svg width="64" height="64" viewBox="0 0 64 64" fill="none" xmlns="http://www.w3.org/2000/svg">
<circle cx="32" cy="32" r="32" fill="#ECECFE"/>
<g clip-path="url(#clip0_665_143)">
<path d="M28.8889 30.4446C28.1528 30.4446 27.5556 31.2429 27.5556 32.1723C27.5556 33.2001 28.1556 34.0001 28.8889 34.0001C29.6222 34.0001 30.2222 33.2001 30.2222 32.2223C30.2222 31.2446 29.6278 30.4446 28.8889 30.4446ZM16 43.7779V45.5057C16 46.0501 16.3958 46.4446 16.8889 46.4446H19.5556V42.939H16.8889C16.3958 42.889 16 43.2834 16 43.7779ZM47.1111 42.889H44.4444V24.3057C44.4444 22.7918 43.25 21.5557 41.7778 21.5557L35.5556 21.5562V25.1112H40.8889V46.4446H47.1111C47.6042 46.4446 48 46.0487 48 45.6057V43.8779C48 43.2834 47.6056 42.889 47.1111 42.889Z" fill="#651FFF"/>
<path opacity="0.4" d="M31.5722 18.0561L20.9055 20.82C20.0611 21.0285 19.5555 21.7646 19.5555 22.6046V46.4446H33.7778V19.8408C33.7778 18.6463 32.6944 17.7645 31.5722 18.0561ZM28.8889 34.0002C28.1528 34.0002 27.5555 33.2019 27.5555 32.2724C27.5555 31.2935 28.1528 30.5446 28.8889 30.5446C29.625 30.5446 30.2222 31.2446 30.2222 32.2224C30.2222 33.2002 29.6278 34.0002 28.8889 34.0002Z" fill="#651FFF"/>
</g>
<defs>
<clipPath id="clip0_665_143">
<rect width="32" height="28.4444" fill="white" transform="translate(16 18)"/>
</clipPath>
</defs>
</svg>
