<svg width="24" height="21" viewBox="0 0 24 21" fill="none" xmlns="http://www.w3.org/2000/svg">
<g clip-path="url(#clip0_656_18667)" filter="url(#filter0_d_656_18667)">
<path d="M14 12C14 11.7442 14.0977 11.4882 14.293 11.2932L17.5875 8.00005L14.2937 4.7063C13.9031 4.31567 13.9031 3.68286 14.2937 3.29224C14.6844 2.90161 15.3172 2.90161 15.7078 3.29224L19.7078 7.29224C20.0984 7.68286 20.0984 8.31567 19.7078 8.7063L15.7078 12.7063C15.3172 13.0969 14.6844 13.0969 14.2937 12.7063C14.0969 12.5125 14 12.2563 14 12Z" fill="white"/>
<path opacity="0.4" d="M16.5875 9H5C4.44719 9 4 8.55313 4 7.97188C4 7.39063 4.44719 7 5 7H16.5875L17.5875 8L16.5875 9Z" fill="white"/>
</g>
<defs>
<filter id="filter0_d_656_18667" x="0" y="0" width="24" height="24" filterUnits="userSpaceOnUse" color-interpolation-filters="sRGB">
<feFlood flood-opacity="0" result="BackgroundImageFix"/>
<feColorMatrix in="SourceAlpha" type="matrix" values="0 0 0 0 0 0 0 0 0 0 0 0 0 0 0 0 0 0 127 0" result="hardAlpha"/>
<feOffset dy="4"/>
<feGaussianBlur stdDeviation="2"/>
<feComposite in2="hardAlpha" operator="out"/>
<feColorMatrix type="matrix" values="0 0 0 0 0 0 0 0 0 0 0 0 0 0 0 0 0 0 0.25 0"/>
<feBlend mode="normal" in2="BackgroundImageFix" result="effect1_dropShadow_656_18667"/>
<feBlend mode="normal" in="SourceGraphic" in2="effect1_dropShadow_656_18667" result="shape"/>
</filter>
<clipPath id="clip0_656_18667">
<rect width="16" height="16" fill="white" transform="translate(4)"/>
</clipPath>
</defs>
</svg>
