<svg width="254" height="252" viewBox="0 0 254 252" fill="none" xmlns="http://www.w3.org/2000/svg">
<g clip-path="url(#clip0_656_18732)">
<path d="M167.331 135.185L119.137 135.488C118.821 135.488 118.725 135.777 118.725 136.053V177.13C118.725 181.068 91.3426 191.272 91.0814 190.763L91.054 195.114C91.054 195.927 91.7687 196.643 92.6622 196.643H93.2671H93.2808H133.681C135.55 196.643 137.406 196.216 139.11 195.514L161.324 186.15C165.324 184.47 167.84 180.834 167.84 176.882V135.763C167.84 135.488 167.647 135.185 167.331 135.185Z" fill="#651FFF"/>
<path d="M113.845 133.106V174.183C113.845 178.232 111.247 181.922 107.151 183.671L92.1674 190.074C91.1915 190.487 91.5214 191.809 92.6073 191.809H133.777C135.633 191.809 137.461 191.437 139.138 190.735L155.743 183.726C159.867 181.991 162.492 178.287 162.492 174.211V133.106C162.492 132.94 162.341 132.803 162.149 132.803H114.189C113.996 132.803 113.845 132.94 113.845 133.106Z" fill="white"/>
<path d="M133.777 192.112H92.6073C91.8513 192.112 91.4114 191.617 91.3014 191.121C91.1914 190.57 91.4801 190.033 92.0437 189.799L107.027 183.396C110.972 181.702 113.529 178.094 113.529 174.197V133.106C113.529 132.775 113.817 132.5 114.175 132.5H162.135C162.492 132.5 162.781 132.775 162.781 133.106V174.225C162.781 178.397 160.059 182.239 155.853 184.015L139.248 191.025C137.557 191.741 135.66 192.112 133.777 192.112ZM114.147 133.12V174.183C114.147 178.328 111.453 182.17 107.274 183.947L92.2911 190.35C91.9887 190.474 91.8512 190.722 91.9062 190.983C91.9475 191.217 92.1674 191.493 92.6073 191.493H133.777C135.578 191.493 137.392 191.135 139.014 190.446L155.619 183.437C159.606 181.757 162.176 178.135 162.176 174.211V133.106C162.176 133.106 162.162 133.106 162.149 133.106H114.189C114.175 133.106 114.161 133.106 114.147 133.12Z" fill="#651FFF"/>
<path d="M23.767 156.64L231.47 157.108C233.285 157.108 235.099 155.744 235.333 153.927L252.213 23.7267C252.612 20.5733 250.179 17.4336 247.044 17.5162L41.7468 18.6041L23.767 156.64Z" fill="#651FFF"/>
<path d="M238.879 18.2598C242.453 18.2598 245.684 21.8952 245.216 25.448L228.831 153.61C228.597 155.414 226.659 156.956 224.844 156.956L20.8115 156.626C18.6259 156.626 17.1825 154.808 17.4575 152.646L34.4201 22.1017C34.6538 20.2978 35.8497 18.2598 37.6642 18.2598H238.879Z" fill="white"/>
<path d="M224.858 157.259L20.8253 156.929C19.7256 156.929 18.7359 156.502 18.0486 155.717C17.3338 154.905 17.0176 153.762 17.1551 152.605L34.1178 22.0606C34.3789 20.0639 35.6985 17.957 37.6642 17.957H238.866C240.666 17.957 242.467 18.8246 243.8 20.3393C245.12 21.8403 245.739 23.7131 245.519 25.4895L229.147 153.651C228.9 155.579 226.893 157.259 224.858 157.259ZM37.6917 18.5629C36.0834 18.5629 34.97 20.4082 34.7501 22.1295L17.7874 152.674C17.6637 153.679 17.9249 154.615 18.5297 155.304C19.0933 155.951 19.9181 156.309 20.839 156.309L224.872 156.64C226.59 156.64 228.35 155.18 228.556 153.569L244.941 25.4069C245.148 23.8095 244.57 22.102 243.374 20.7387C242.165 19.3616 240.529 18.5629 238.907 18.5629H37.6917Z" fill="#651FFF"/>
<path d="M220.061 151.434L27.286 151.131C26.2688 151.131 25.3478 150.732 24.7155 150.002C24.0556 149.245 23.7532 148.198 23.8907 147.11L39.5062 27.0179C39.7399 25.1727 40.9771 23.2173 42.7915 23.2173H232.955C234.618 23.2173 236.281 24.016 237.505 25.4206C238.728 26.8114 239.305 28.5465 239.086 30.1852L224.006 148.088C223.8 149.864 221.944 151.434 220.061 151.434ZM42.7915 23.837C41.3207 23.837 40.3173 25.517 40.1111 27.1006L24.4955 147.193C24.3718 148.116 24.6192 148.969 25.1691 149.589C25.6914 150.181 26.4337 150.512 27.2722 150.512L220.047 150.815C221.614 150.815 223.223 149.479 223.401 148.005L238.494 30.1025C238.687 28.6429 238.165 27.0868 237.051 25.8337C235.938 24.5668 234.453 23.837 232.955 23.837H42.7915Z" fill="#651FFF"/>
<path d="M212.693 40.1137H134.34C134.258 40.1137 134.162 40.0724 134.107 40.0035C134.052 39.9347 134.024 39.8521 134.038 39.7557L134.56 35.8173C134.574 35.6658 134.711 35.5557 134.863 35.5557H213.215C213.298 35.5557 213.394 35.597 213.449 35.6658C213.504 35.7347 213.532 35.8173 213.518 35.9137L212.995 39.8521C212.982 39.9898 212.844 40.1137 212.693 40.1137ZM134.684 39.494H212.418L212.858 36.1753H135.124L134.684 39.494Z" fill="#651FFF"/>
<path d="M229.601 46.283H149.763L150.3 42.3584H230.137L229.601 46.283Z" fill="#651FFF"/>
<path d="M219.099 53.0854H177.833C177.751 53.0854 177.654 53.0441 177.599 52.9752C177.544 52.9064 177.517 52.8237 177.531 52.7273L178.053 48.789C178.067 48.6375 178.204 48.5273 178.355 48.5273H219.621C219.704 48.5273 219.8 48.5687 219.855 48.6375C219.91 48.7064 219.937 48.789 219.924 48.8854L219.401 52.8237C219.387 52.9752 219.264 53.0854 219.099 53.0854ZM178.19 52.4657H218.838L219.277 49.147H178.63L178.19 52.4657Z" fill="#651FFF"/>
<path d="M205.724 92.0146H127.371C127.289 92.0146 127.192 91.9733 127.137 91.9044C127.082 91.8356 127.055 91.7529 127.069 91.6565L127.591 87.7182C127.605 87.5667 127.742 87.4565 127.893 87.4565H206.246C206.329 87.4565 206.425 87.4979 206.48 87.5667C206.535 87.6356 206.562 87.7182 206.548 87.8146L206.026 91.7529C206.012 91.9044 205.875 92.0146 205.724 92.0146ZM127.715 91.3949H205.449L205.889 88.0762H128.168L127.715 91.3949Z" fill="#651FFF"/>
<path d="M163.331 98.5004H142.808C142.725 98.5004 142.629 98.4591 142.574 98.3903C142.519 98.3214 142.492 98.2388 142.505 98.1424L143.028 94.204C143.042 94.0525 143.179 93.9424 143.33 93.9424H161.901C162.066 93.9424 162.204 94.0801 162.204 94.2453C162.204 94.4106 162.066 94.5483 161.901 94.5483H143.605L143.165 97.867H163.345C163.509 97.867 163.647 98.0047 163.647 98.1699C163.633 98.3627 163.496 98.5004 163.331 98.5004Z" fill="#651FFF"/>
<path d="M222.631 98.5007H173.324C173.159 98.5007 173.022 98.363 173.022 98.1977C173.022 98.0325 173.159 97.8948 173.324 97.8948H222.37L222.81 94.5761H170.657C170.492 94.5761 170.355 94.4384 170.355 94.2732C170.355 94.1079 170.492 93.9702 170.657 93.9702H223.154C223.236 93.9702 223.332 94.0115 223.387 94.0804C223.442 94.1492 223.47 94.2319 223.456 94.3282L222.934 98.2666C222.92 98.3905 222.796 98.5007 222.631 98.5007Z" fill="#651FFF"/>
<path d="M221.765 104.987H179.111C178.946 104.987 178.809 104.849 178.809 104.684C178.809 104.518 178.946 104.381 179.111 104.381H221.491L221.93 101.062H176.775C176.61 101.062 176.472 100.924 176.472 100.759C176.472 100.594 176.61 100.456 176.775 100.456H222.302C222.384 100.456 222.48 100.497 222.535 100.566C222.59 100.635 222.618 100.718 222.604 100.814L222.082 104.752C222.054 104.876 221.917 104.987 221.765 104.987Z" fill="#651FFF"/>
<path d="M169.874 111.211H140.787C140.705 111.211 140.609 111.17 140.554 111.101C140.499 111.032 140.471 110.949 140.485 110.853L141.007 106.914C141.021 106.763 141.158 106.653 141.31 106.653H165.242C165.406 106.653 165.544 106.791 165.544 106.956C165.544 107.121 165.406 107.259 165.242 107.259H141.571L141.131 110.577H169.86C170.025 110.577 170.163 110.715 170.163 110.88C170.19 111.073 170.053 111.211 169.874 111.211Z" fill="#651FFF"/>
<path d="M210.081 59.2684H131.715L132.251 55.3301H210.604L210.081 59.2684Z" fill="#651FFF"/>
<path d="M215.566 65.7543H147.152L147.688 61.8159H215.676L215.566 65.7543Z" fill="#651FFF"/>
<path d="M205.999 79.0429H174.355C174.273 79.0429 174.177 79.0016 174.122 78.9327C174.067 78.8639 174.039 78.7813 174.053 78.6849L174.575 74.7465C174.589 74.595 174.726 74.4849 174.878 74.4849H206.521C206.604 74.4849 206.7 74.5262 206.755 74.595C206.81 74.6639 206.837 74.7465 206.823 74.8429L206.301 78.7812C206.274 78.919 206.15 79.0429 205.999 79.0429ZM174.713 78.4232H205.738L206.177 75.1045H175.153L174.713 78.4232Z" fill="#651FFF"/>
<path d="M214.59 85.2123H182.947L183.469 81.2739H215.112L214.59 85.2123Z" fill="#651FFF"/>
<path d="M213.064 72.2401H175.221L175.757 68.3018H213.215L213.064 72.2401Z" fill="#651FFF"/>
<path d="M202.246 117.656H123.88L124.416 113.731H202.768L202.246 117.656Z" fill="white"/>
<path d="M180.678 124.458H139.316C139.234 124.458 139.138 124.417 139.083 124.348C139.028 124.279 139 124.196 139.014 124.1L139.536 120.162C139.55 120.01 139.688 119.9 139.839 119.9H179.263C179.427 119.9 179.565 120.038 179.565 120.203C179.565 120.368 179.427 120.506 179.263 120.506H140.1L139.66 123.824H180.678C180.843 123.824 180.981 123.962 180.981 124.127C180.995 124.32 180.857 124.458 180.678 124.458Z" fill="#651FFF"/>
<path d="M202.438 130.944H167.386C167.304 130.944 167.207 130.902 167.152 130.834C167.097 130.765 167.07 130.682 167.084 130.586L167.606 126.647C167.62 126.496 167.757 126.386 167.908 126.386H201.188C201.353 126.386 201.49 126.523 201.49 126.689C201.49 126.854 201.353 126.992 201.188 126.992H168.183L167.743 130.31H202.452C202.617 130.31 202.755 130.448 202.755 130.613C202.755 130.806 202.617 130.944 202.438 130.944Z" fill="#651FFF"/>
<path d="M199.634 137.127H121.268L121.804 133.188H200.157L199.634 137.127Z" fill="white"/>
<path d="M202.136 143.915H136.705C136.622 143.915 136.526 143.874 136.471 143.805C136.416 143.736 136.388 143.654 136.402 143.557L136.925 139.619C136.938 139.468 137.076 139.357 137.227 139.357H202.438C202.603 139.357 202.741 139.495 202.741 139.66C202.741 139.826 202.603 139.963 202.438 139.963H137.502L137.062 143.282H202.136C202.301 143.282 202.438 143.42 202.438 143.585C202.438 143.778 202.301 143.915 202.136 143.915Z" fill="#651FFF"/>
<path d="M121.721 85.1433H114.092L114.601 81.3564H122.23L121.721 85.1433Z" fill="#651FFF"/>
<path d="M128.1 39.7971H120.141L120.663 35.8726H128.622L128.1 39.7971Z" fill="#651FFF"/>
<path d="M128.897 33.8344H120.938L121.474 29.896H129.419L128.897 33.8344Z" fill="#651FFF"/>
<path d="M127.165 46.283H119.275L119.797 42.3584H127.687L127.165 46.283Z" fill="#651FFF"/>
<path d="M126.024 52.7826H118.532L119.055 48.8442H126.56L126.024 52.7826Z" fill="#651FFF"/>
<path d="M125.199 59.2684H117.57L118.093 55.3301H125.722L125.199 59.2684Z" fill="#651FFF"/>
<path d="M124.278 65.7543H116.663L117.185 61.8159H124.814L124.278 65.7543Z" fill="#651FFF"/>
<path d="M122.766 78.4646H115.206L115.742 74.54H123.302L122.766 78.4646Z" fill="#651FFF"/>
<path d="M123.453 71.9784H116.223L116.745 68.04H123.976L123.453 71.9784Z" fill="#651FFF"/>
<path d="M119.082 104.849H111.453L111.948 101.076H119.591L119.082 104.849Z" fill="#651FFF"/>
<path d="M120.127 98.184H112.567L113.089 94.2456H120.649L120.127 98.184Z" fill="#651FFF"/>
<path d="M120.8 91.6981H113.584L114.106 87.7598H121.337L120.8 91.6981Z" fill="#651FFF"/>
<path d="M113.927 143.227H106.298L106.807 139.454H114.436L113.927 143.227Z" fill="#651FFF"/>
<path d="M118.23 110.867H110.738L111.261 106.928H118.752L118.23 110.867Z" fill="#651FFF"/>
<path d="M117.405 117.352H109.776L110.298 113.414H117.928L117.405 117.352Z" fill="#651FFF"/>
<path d="M116.484 123.838H108.869L109.391 119.914H117.02L116.484 123.838Z" fill="#651FFF"/>
<path d="M114.972 136.562H107.412L107.948 132.624H115.508L114.972 136.562Z" fill="#651FFF"/>
<path d="M115.659 130.077H108.429L108.951 126.138H116.182L115.659 130.077Z" fill="#651FFF"/>
<path d="M87.6312 32.9807H49.912L50.4206 29.1938H88.1398L87.6312 32.9807Z" fill="#651FFF"/>
<path d="M94.2706 39.852H54.5032C54.4207 39.852 54.3245 39.8107 54.2695 39.7418C54.2145 39.673 54.187 39.5903 54.2008 39.4939L54.7231 35.5556C54.7369 35.4041 54.8743 35.2939 55.0255 35.2939H94.7792C94.8617 35.2939 94.9579 35.3353 95.0129 35.4041C95.0679 35.473 95.0953 35.5556 95.0816 35.652L94.5592 39.5903C94.5455 39.728 94.4218 39.852 94.2706 39.852ZM54.8606 39.2323H93.9957L94.4355 35.9136H55.3005L54.8606 39.2323Z" fill="#651FFF"/>
<path d="M104.663 46.3383H58.3384C58.2559 46.3383 58.1597 46.297 58.1047 46.2281C58.0497 46.1593 58.0222 46.0767 58.036 45.9803L58.5583 42.0419C58.5721 41.8904 58.7095 41.7803 58.8607 41.7803H105.185C105.267 41.7803 105.364 41.8216 105.419 41.8904C105.474 41.9593 105.501 42.0419 105.487 42.1383L104.965 46.0767C104.938 46.2281 104.814 46.3383 104.663 46.3383ZM58.682 45.7186H104.388L104.828 42.3999H59.1357L58.682 45.7186Z" fill="#651FFF"/>
<path d="M110.601 52.8241H71.9469C71.8644 52.8241 71.7682 52.7828 71.7132 52.714C71.6582 52.6451 71.6307 52.5625 71.6445 52.4661L72.1668 48.5278C72.1806 48.3763 72.3181 48.2661 72.4693 48.2661H111.123C111.206 48.2661 111.302 48.3074 111.357 48.3763C111.412 48.4451 111.439 48.5278 111.426 48.6241L110.903 52.5625C110.876 52.714 110.752 52.8241 110.601 52.8241ZM72.2906 52.2045H110.326L110.766 48.8858H72.7304L72.2906 52.2045Z" fill="#651FFF"/>
<path d="M73.5002 84.8816H42.9564L43.4513 81.0947H74.0088L73.5002 84.8816Z" fill="#651FFF"/>
<path d="M73.9814 91.7533H51.6441C51.5616 91.7533 51.4654 91.712 51.4104 91.6432C51.3554 91.5743 51.3279 91.4917 51.3416 91.3953L51.864 87.4569C51.8777 87.3055 52.0152 87.1953 52.1664 87.1953H74.5038C74.5863 87.1953 74.6825 87.2366 74.7375 87.3055C74.7924 87.3743 74.8199 87.4569 74.8062 87.5533L74.2838 91.4917C74.2564 91.6432 74.1326 91.7533 73.9814 91.7533ZM51.9877 91.1337H73.7065L74.1464 87.815H52.4276L51.9877 91.1337Z" fill="#651FFF"/>
<path d="M81.9816 98.2392H60.5927C60.5102 98.2392 60.414 98.1979 60.359 98.129C60.304 98.0602 60.2765 97.9775 60.2902 97.8812L60.8126 93.9428C60.8263 93.7913 60.9638 93.6812 61.115 93.6812H82.5039C82.5864 93.6812 82.6826 93.7225 82.7376 93.7913C82.7926 93.8602 82.8201 93.9428 82.8063 94.0392L82.284 97.9775C82.2565 98.129 82.1328 98.2392 81.9816 98.2392ZM60.9363 97.6333H81.7066L82.1465 94.3146H61.3899L60.9363 97.6333Z" fill="#651FFF"/>
<path d="M96.14 104.725H69.074C68.9915 104.725 68.8953 104.684 68.8403 104.615C68.7853 104.546 68.7578 104.463 68.7716 104.367L69.2939 100.429C69.3077 100.277 69.4451 100.167 69.5963 100.167H96.6624C96.7448 100.167 96.8411 100.208 96.896 100.277C96.951 100.346 96.9785 100.429 96.9648 100.525L96.4424 104.463C96.4287 104.615 96.2912 104.725 96.14 104.725ZM69.4176 104.119H95.8651L96.305 100.8H69.8713L69.4176 104.119Z" fill="#651FFF"/>
<path d="M74.2287 59.0067H46.9153L47.4376 55.0684H74.7511L74.2287 59.0067Z" fill="#651FFF"/>
<path d="M108.182 65.7958H65.9674C65.8849 65.7958 65.7887 65.7545 65.7337 65.6857C65.6787 65.6168 65.6513 65.5342 65.665 65.4378L66.1874 61.4994C66.2011 61.348 66.3386 61.2378 66.4898 61.2378H108.704C108.786 61.2378 108.883 61.2791 108.938 61.348C108.993 61.4168 109.02 61.4994 109.006 61.5958L108.484 65.5342C108.457 65.6857 108.333 65.7958 108.182 65.7958ZM66.3248 65.1899H107.907L108.347 61.8712H66.7647L66.3248 65.1899Z" fill="#651FFF"/>
<path d="M72.8266 71.9789H45.5132L46.0355 68.0405H73.3627L72.8266 71.9789Z" fill="#651FFF"/>
<path d="M106.78 78.7675H64.5653C64.4828 78.7675 64.3866 78.7262 64.3316 78.6573C64.2766 78.5885 64.2492 78.5059 64.2629 78.4095L64.7853 74.4711C64.799 74.3196 64.9365 74.2095 65.0877 74.2095H107.302C107.384 74.2095 107.481 74.2508 107.536 74.3196C107.591 74.3885 107.618 74.4711 107.604 74.5675L107.082 78.5059C107.068 78.6573 106.931 78.7675 106.78 78.7675ZM64.9227 78.1478H106.518L106.958 74.8291H65.3626L64.9227 78.1478Z" fill="#651FFF"/>
<path d="M73.4315 110.839H39.465L39.9736 107.052H73.9401L73.4315 110.839Z" fill="#651FFF"/>
<path d="M95.4253 117.71H39.9598C39.8774 117.71 39.7811 117.669 39.7262 117.6C39.6712 117.531 39.6437 117.449 39.6574 117.352L40.1798 113.414C40.1935 113.263 40.331 113.152 40.4822 113.152H95.9476C96.0301 113.152 96.1263 113.194 96.1813 113.263C96.2363 113.331 96.2638 113.414 96.25 113.51L95.7277 117.449C95.7002 117.6 95.5765 117.71 95.4253 117.71ZM40.3035 117.091H95.1503L95.5902 113.772H40.7434L40.3035 117.091Z" fill="#651FFF"/>
<path d="M95.2328 124.197H63.3969C63.3144 124.197 63.2182 124.155 63.1632 124.087C63.1082 124.018 63.0807 123.935 63.0944 123.839L63.6168 119.9C63.6305 119.749 63.768 119.639 63.9192 119.639H95.7551C95.8376 119.639 95.9338 119.68 95.9888 119.749C96.0438 119.818 96.0713 119.9 96.0575 119.997L95.5352 123.935C95.5214 124.087 95.384 124.197 95.2328 124.197ZM63.7405 123.577H94.9578L95.3977 120.258H64.1804L63.7405 123.577Z" fill="#651FFF"/>
<path d="M81.8716 136.865H60.579L58.8607 132.927H82.4077L81.8716 136.865Z" fill="#651FFF"/>
<path d="M101.597 130.173H71.0535C70.971 130.173 70.8748 130.131 70.8198 130.063C70.7648 129.994 70.7373 129.911 70.7511 129.815L71.2734 125.876C71.2872 125.725 71.4246 125.615 71.5758 125.615H102.133C102.216 125.615 102.312 125.656 102.367 125.725C102.422 125.794 102.45 125.876 102.436 125.973L101.913 129.911C101.886 130.063 101.748 130.173 101.597 130.173ZM71.4109 129.553H101.336L101.776 126.234H71.8507L71.4109 129.553Z" fill="#651FFF"/>
<path d="M88.1811 143.668H63.8093C63.6444 143.668 63.5069 143.53 63.5069 143.365C63.5069 143.2 63.6444 143.062 63.8093 143.062H87.9062L88.346 139.744H62.6684C62.5034 139.744 62.366 139.606 62.366 139.441C62.366 139.275 62.5034 139.138 62.6684 139.138H88.7034C88.7859 139.138 88.8821 139.179 88.9371 139.248C88.9921 139.317 89.0196 139.399 89.0059 139.496L88.4835 143.434C88.456 143.544 88.3323 143.668 88.1811 143.668Z" fill="#651FFF"/>
<path d="M241.573 229.94L240.817 237.279L235.883 237.872V229.155L241.573 229.94Z" fill="white"/>
<path d="M235.882 238.174C235.814 238.174 235.731 238.147 235.676 238.092C235.608 238.037 235.58 237.954 235.58 237.858V229.141C235.58 229.058 235.621 228.962 235.69 228.907C235.759 228.852 235.841 228.824 235.937 228.838L241.628 229.623C241.793 229.65 241.903 229.788 241.89 229.953L241.12 237.307C241.106 237.445 240.996 237.568 240.845 237.582L235.91 238.161C235.91 238.174 235.896 238.174 235.882 238.174ZM236.185 229.499V237.513L240.529 237.004L241.243 230.187L236.185 229.499Z" fill="#651FFF"/>
<path d="M235.113 250.665C237.161 250.954 240.542 251.215 244.488 250.665C245.78 250.486 246.646 249.219 246.33 247.938C245.464 244.371 243.965 237.596 241.381 234.457L240.735 236.164L239.855 234.567C239.731 234.347 239.511 234.195 239.264 234.167L237.326 233.92C236.927 233.865 236.542 234.14 236.46 234.539L236.157 236.013L234.975 234.071L234.453 241.301C234.343 242.843 234.109 244.385 233.752 245.9L233.23 248.186C233.078 249.384 233.917 250.499 235.113 250.665Z" fill="white"/>
<path d="M239.773 251.298C237.889 251.298 236.281 251.146 235.071 250.967C233.724 250.775 232.762 249.508 232.941 248.131L233.477 245.817C233.821 244.33 234.054 242.788 234.164 241.273L234.687 234.043C234.7 233.906 234.797 233.796 234.92 233.768C235.044 233.74 235.181 233.796 235.25 233.906L236.02 235.173L236.171 234.457C236.281 233.906 236.817 233.52 237.381 233.589L239.319 233.837C239.663 233.878 239.965 234.085 240.13 234.388L240.694 235.407L241.106 234.333C241.147 234.236 241.23 234.154 241.34 234.14C241.45 234.126 241.56 234.167 241.628 234.25C244.075 237.224 245.56 243.394 246.453 247.07L246.646 247.841C246.811 248.53 246.687 249.274 246.288 249.866C245.89 250.458 245.257 250.843 244.556 250.94C242.81 251.201 241.202 251.298 239.773 251.298ZM235.223 235.049L234.769 241.328C234.659 242.884 234.425 244.454 234.068 245.969L233.546 248.255C233.422 249.26 234.137 250.224 235.154 250.375C237.243 250.678 240.57 250.912 244.446 250.375C244.982 250.306 245.45 250.003 245.752 249.563C246.055 249.108 246.151 248.558 246.027 248.034L245.835 247.263C244.996 243.807 243.635 238.119 241.463 235.118L241.024 236.302C240.982 236.412 240.872 236.495 240.762 236.495C240.639 236.495 240.529 236.44 240.474 236.343L239.594 234.746C239.525 234.608 239.388 234.525 239.237 234.498L237.298 234.25C237.051 234.222 236.817 234.388 236.776 234.622L236.474 236.095C236.446 236.219 236.35 236.316 236.226 236.329C236.102 236.357 235.979 236.288 235.91 236.192L235.223 235.049Z" fill="#651FFF"/>
<path d="M239.608 249.108C237.106 249.108 235.58 248.571 235.484 248.544C235.319 248.489 235.236 248.31 235.305 248.144C235.36 247.979 235.539 247.896 235.704 247.965C235.731 247.979 238.989 249.122 243.786 248.007C243.951 247.965 244.116 248.075 244.158 248.241C244.199 248.406 244.089 248.571 243.924 248.612C242.288 248.984 240.831 249.108 239.608 249.108Z" fill="#651FFF"/>
<path d="M242 243.463C241.986 243.463 241.986 243.463 242 243.463L237.367 243.311C237.202 243.311 237.065 243.16 237.065 242.994C237.065 242.829 237.216 242.691 237.381 242.691L242 242.843C242.164 242.843 242.302 242.994 242.302 243.16C242.288 243.339 242.151 243.463 242 243.463Z" fill="#651FFF"/>
<path d="M218.494 226.015L217.751 236.742H211.827L211.552 226.015H218.494Z" fill="white"/>
<path d="M217.751 237.059H211.827C211.662 237.059 211.524 236.921 211.524 236.756L211.25 226.029C211.25 225.946 211.277 225.863 211.332 225.808C211.387 225.753 211.469 225.712 211.552 225.712H218.494C218.576 225.712 218.659 225.753 218.714 225.808C218.769 225.877 218.796 225.96 218.796 226.042L218.054 236.77C218.04 236.935 217.916 237.059 217.751 237.059ZM212.116 236.439H217.463L218.164 226.332H211.868L212.116 236.439Z" fill="#651FFF"/>
<path d="M219.305 242.801C219.319 243.82 218.631 244.701 217.655 244.935C214.246 245.734 206.562 247.51 204.377 247.841C201.531 248.268 198.04 247.386 196.541 245.706C195.043 244.026 199.909 240.019 202.218 238.573C205.655 236.411 208.94 232.129 210.329 231.936C211.717 231.743 214.287 235.792 214.287 235.792L218.508 234.001C218.494 234.015 219.222 237.651 219.305 242.801Z" fill="white"/>
<path d="M202.878 248.268C200.266 248.268 197.572 247.345 196.294 245.927C196.005 245.596 195.881 245.183 195.95 244.701C196.239 242.594 200.17 239.496 202.026 238.312C203.717 237.251 205.353 235.682 206.796 234.305C208.349 232.817 209.476 231.743 210.26 231.633C211.648 231.44 213.71 234.387 214.384 235.406L218.37 233.726C218.453 233.685 218.549 233.699 218.631 233.74C218.714 233.781 218.769 233.864 218.782 233.947C218.796 233.988 219.525 237.678 219.593 242.787C219.607 243.944 218.81 244.963 217.71 245.225C214.452 245.996 206.617 247.813 204.404 248.144C203.909 248.226 203.401 248.268 202.878 248.268ZM210.411 232.253C210.384 232.253 210.37 232.253 210.342 232.253C209.751 232.335 208.514 233.506 207.208 234.759C205.737 236.164 204.088 237.747 202.342 238.849C200.445 240.047 196.789 243.021 196.541 244.798C196.5 245.101 196.569 245.335 196.734 245.527C198.136 247.097 201.462 247.979 204.294 247.552C206.48 247.221 214.287 245.404 217.545 244.646C218.384 244.453 218.975 243.682 218.961 242.815C218.906 238.684 218.411 235.503 218.219 234.456L214.356 236.095C214.219 236.15 214.054 236.108 213.985 235.971C213.009 234.387 211.263 232.253 210.411 232.253Z" fill="#651FFF"/>
<path d="M202.919 245.638C201.064 245.638 199.4 245.335 198.204 244.55C198.067 244.453 198.026 244.261 198.122 244.123C198.218 243.985 198.411 243.944 198.548 244.04C202.947 246.932 214.672 242.649 216.968 241.768C217.133 241.713 217.298 241.782 217.367 241.947C217.422 242.112 217.353 242.278 217.188 242.347C214.769 243.269 208.088 245.638 202.919 245.638Z" fill="#651FFF"/>
<path d="M209.518 239.799C209.435 239.799 209.366 239.771 209.298 239.716L206.837 237.307C206.713 237.183 206.713 236.99 206.837 236.866C206.961 236.742 207.153 236.742 207.277 236.866L209.738 239.276C209.861 239.4 209.861 239.592 209.738 239.716C209.669 239.771 209.586 239.799 209.518 239.799Z" fill="#651FFF"/>
<path d="M243.264 156.088C243.264 156.088 245.106 189.619 246.068 201.2C247.031 212.781 243.814 231.385 243.814 231.385L234.659 230.903C234.659 230.903 234.027 208.278 233.353 201.999C233.353 201.999 229.491 193.475 228.336 185.888C227.195 178.286 223.291 166.292 223.291 166.292C223.291 166.292 220.116 226.18 219.813 230.89C219.813 230.89 212.638 231.206 210.067 229.581C210.067 229.581 205.504 207.741 206.163 195.857C206.823 183.974 206.095 154.463 206.095 154.463L243.264 156.088Z" fill="white"/>
<path d="M243.814 231.688H243.8L234.645 231.206C234.48 231.193 234.357 231.069 234.357 230.903C234.357 230.683 233.724 208.334 233.051 202.068C232.748 201.38 229.133 193.186 228.033 185.915C227.154 180.077 224.597 171.511 223.497 167.986C222.975 177.763 220.377 226.69 220.116 230.89C220.102 231.041 219.978 231.165 219.827 231.179C219.525 231.193 212.528 231.482 209.902 229.816C209.834 229.774 209.779 229.705 209.765 229.623C209.724 229.402 205.201 207.604 205.847 195.83C206.493 184.098 205.792 154.753 205.779 154.45C205.779 154.367 205.806 154.284 205.875 154.229C205.93 154.174 206.012 154.133 206.108 154.147L243.278 155.785C243.429 155.799 243.567 155.923 243.567 156.075C243.58 156.405 245.409 189.73 246.371 201.173C247.319 212.658 244.144 231.248 244.116 231.44C244.089 231.578 243.951 231.688 243.814 231.688ZM234.948 230.614L243.553 231.069C243.938 228.741 246.632 211.886 245.752 201.228C244.845 190.336 243.14 159.641 242.962 156.391L206.397 154.78C206.48 158.058 207.071 184.786 206.452 195.871C205.834 207.094 209.944 227.543 210.329 229.375C212.597 230.697 218.205 230.614 219.525 230.587C219.91 224.252 222.947 166.871 222.989 166.279C223.002 166.127 223.112 166.003 223.25 165.989C223.401 165.976 223.538 166.058 223.58 166.196C223.621 166.32 227.511 178.3 228.638 185.846C229.765 193.31 233.587 201.793 233.628 201.875C233.642 201.903 233.656 201.93 233.656 201.972C234.288 207.797 234.879 227.97 234.948 230.614Z" fill="#651FFF"/>
<path d="M237.834 202.302H235.03C234.865 202.302 234.728 202.164 234.728 201.999C234.728 201.834 234.865 201.696 235.03 201.696H237.834C237.999 201.696 238.137 201.834 238.137 201.999C238.137 202.164 237.999 202.302 237.834 202.302Z" fill="#651FFF"/>
<path d="M215.098 219.708C214.933 219.708 214.796 219.57 214.796 219.405C214.7 214.035 208.555 203.927 208.5 203.817C208.418 203.665 208.459 203.486 208.597 203.39C208.734 203.307 208.926 203.349 209.023 203.486C209.284 203.913 215.305 213.842 215.415 219.378C215.415 219.57 215.277 219.708 215.098 219.708Z" fill="#651FFF"/>
<path d="M200.445 103.044C199.936 103.003 195.716 110.26 193.737 113.73C193.173 114.721 191.909 115.038 190.947 114.446L175.427 104.848C174.163 104.063 173.077 103.016 172.252 101.763C170.96 99.7804 170.19 97.7699 168.458 96.3653C167.042 95.2223 165.613 93.9555 165.186 93.625C164.925 93.4184 163.674 94.2997 164.609 95.8833C164.898 96.3653 165.97 97.343 166.272 97.7974C166.74 98.5135 166.74 99.4499 166.217 100.125C165.654 100.841 165.2 101.984 165.819 103.581C166.74 105.95 168.843 106.528 170.025 106.666C170.616 106.734 171.166 107.024 171.565 107.478L185.874 123.906C188.101 126.454 191.813 127.032 194.686 125.27C199.345 122.419 205.339 116.677 209.655 109.433L200.445 103.044Z" fill="white"/>
<path d="M191.112 126.606C189.091 126.606 187.084 125.752 185.668 124.113L171.345 107.685C171.001 107.286 170.52 107.038 169.998 106.969C168.76 106.831 166.534 106.211 165.544 103.691C164.857 101.929 165.406 100.676 165.984 99.9321C166.424 99.3675 166.437 98.5826 166.025 97.9629C165.901 97.7839 165.599 97.4534 165.296 97.1367C164.912 96.7373 164.527 96.3242 164.348 96.035C163.674 94.8921 164.004 93.9832 164.485 93.5563C164.802 93.2809 165.159 93.2121 165.379 93.3773C165.558 93.515 165.929 93.8317 166.382 94.2173C167.001 94.7406 167.84 95.4567 168.651 96.1176C169.915 97.1504 170.685 98.4724 171.482 99.8632C171.798 100.428 172.142 101.006 172.513 101.585C173.297 102.783 174.355 103.815 175.592 104.573L191.112 114.171C191.51 114.419 191.964 114.487 192.418 114.377C192.871 114.267 193.242 113.978 193.476 113.579C199.717 102.686 200.17 102.727 200.473 102.741C200.528 102.741 200.583 102.769 200.624 102.796L209.848 109.186C209.985 109.282 210.012 109.461 209.93 109.599C205.284 117.393 199.098 122.956 194.864 125.545C193.696 126.247 192.39 126.606 191.112 126.606ZM165.063 93.9144C164.98 93.9419 164.815 94.0658 164.705 94.2862C164.568 94.5616 164.485 95.0435 164.898 95.7321C165.035 95.9662 165.42 96.3655 165.764 96.7235C166.094 97.0678 166.41 97.3983 166.561 97.6324C167.111 98.4724 167.083 99.5465 166.492 100.318C165.791 101.226 165.668 102.287 166.135 103.485C167.001 105.702 168.98 106.253 170.094 106.377C170.767 106.459 171.386 106.776 171.826 107.286L186.122 123.714C188.252 126.151 191.785 126.702 194.548 125.022C198.686 122.488 204.693 117.104 209.256 109.53L200.431 103.416C199.882 103.981 197.957 106.955 193.998 113.882C193.682 114.432 193.174 114.818 192.569 114.969C191.964 115.121 191.332 115.025 190.795 114.694L175.276 105.096C173.97 104.284 172.843 103.196 172.005 101.929C171.62 101.337 171.276 100.758 170.96 100.18C170.19 98.8304 169.462 97.5635 168.279 96.5996C167.455 95.9386 166.616 95.2088 165.998 94.6855C165.585 94.3412 165.255 94.0521 165.063 93.9144Z" fill="#651FFF"/>
<path d="M253.684 116.54C253.684 116.54 254.715 97.4399 240.295 92.0694C229.133 87.9107 214.879 89.7009 210.411 91.2569C199.414 95.0851 193.998 109.641 193.998 109.641L206.892 111.458C206.892 111.458 203.002 153.293 204.693 162.616C204.693 162.616 215.071 163.841 219.47 162.092C223.869 160.343 238.343 157.892 245.257 161.101L243.993 116.361L253.684 116.54Z" fill="#651FFF"/>
<path d="M212.006 163.345C208.308 163.345 204.899 162.946 204.652 162.918C204.514 162.905 204.404 162.795 204.39 162.671C202.768 153.706 206.191 115.755 206.562 111.72L193.957 109.943C193.861 109.93 193.778 109.875 193.737 109.792C193.696 109.709 193.682 109.613 193.71 109.53C193.765 109.379 199.304 94.7959 210.315 90.9677C215.195 89.2739 229.477 87.7178 240.405 91.7801C246.398 94.0109 250.646 99.0096 252.694 106.225C254.234 111.665 254 116.498 253.986 116.553C253.972 116.718 253.849 116.842 253.684 116.842L244.309 116.663L245.56 161.087C245.56 161.197 245.505 161.294 245.422 161.349C245.34 161.404 245.216 161.418 245.12 161.376C238.219 158.181 223.91 160.66 219.58 162.381C217.697 163.125 214.769 163.345 212.006 163.345ZM204.954 162.34C206.493 162.505 215.428 163.359 219.346 161.803C223.649 160.096 237.711 157.658 244.928 160.619L243.69 116.36C243.69 116.278 243.718 116.195 243.773 116.14C243.828 116.085 243.924 116.058 243.993 116.044L253.381 116.223C253.423 113.799 253.244 97.2195 240.185 92.3585C229.394 88.3375 215.318 89.8798 210.507 91.546C200.72 94.9473 195.345 107.134 194.424 109.393L206.933 111.155C207.098 111.183 207.208 111.32 207.195 111.486C207.153 111.899 203.401 152.728 204.954 162.34Z" fill="white"/>
<path d="M235.718 152.191C235.704 152.191 235.676 152.191 235.663 152.191C218.837 149.189 213.916 137.374 213.861 137.264C213.793 137.113 213.875 136.934 214.026 136.865C214.178 136.796 214.356 136.879 214.425 137.03C214.466 137.14 219.277 148.652 235.759 151.586C235.924 151.613 236.034 151.778 236.006 151.944C235.993 152.081 235.855 152.191 235.718 152.191Z" fill="white"/>
<path d="M204.954 131.921H226.082L219.47 108.139H198.342L204.954 131.921Z" fill="white"/>
<path d="M226.082 132.238H204.954C204.816 132.238 204.693 132.141 204.665 132.017L198.053 108.222C198.026 108.126 198.04 108.029 198.108 107.96C198.163 107.878 198.26 107.836 198.356 107.836H219.47C219.607 107.836 219.731 107.933 219.758 108.057L226.37 131.852C226.398 131.949 226.384 132.045 226.315 132.114C226.26 132.183 226.178 132.238 226.082 132.238ZM205.188 131.618H225.669L219.222 108.442H198.741L205.188 131.618Z" fill="#651FFF"/>
<path d="M251.182 116.553L241.89 116.126C241.89 116.126 241.821 124.016 240.982 124.154C237.999 124.65 231.745 124.677 227.676 124.182C226.26 124.003 225.133 122.915 224.872 121.496C224.666 120.422 224.102 119.169 222.645 118.274C221.243 117.407 222.631 120.147 221.312 121.91C220.611 122.86 218.37 122.433 215.318 121.731C212.267 121.015 211.497 124.306 214.906 126.289C218.618 128.437 220.968 128.203 222.15 128.451C224.501 128.946 245.312 132.237 248.529 130.475C251.003 129.139 251.182 116.553 251.182 116.553Z" fill="white"/>
<path d="M244.488 131.329C237.065 131.329 223.264 129.029 222.081 128.768C221.848 128.712 221.545 128.685 221.188 128.644C219.8 128.506 217.71 128.286 214.741 126.564C212.583 125.311 212.061 123.604 212.487 122.529C212.803 121.745 213.724 121.042 215.373 121.428C218.123 122.075 220.446 122.529 221.051 121.731C221.642 120.946 221.628 119.899 221.628 119.142C221.628 118.508 221.614 118.054 221.958 117.875C222.246 117.71 222.576 117.889 222.796 118.027C224.075 118.825 224.886 120.009 225.161 121.455C225.408 122.75 226.425 123.728 227.704 123.893C231.717 124.375 237.848 124.375 240.872 123.865C241.271 123.383 241.546 119.514 241.573 116.126C241.573 116.044 241.615 115.961 241.67 115.906C241.725 115.851 241.807 115.823 241.89 115.823L251.182 116.25C251.347 116.264 251.471 116.402 251.471 116.567C251.457 117.875 251.223 129.373 248.653 130.778C247.952 131.164 246.44 131.329 244.488 131.329ZM214.521 121.951C213.806 121.951 213.284 122.24 213.078 122.764C212.748 123.59 213.243 124.967 215.071 126.027C217.93 127.693 219.937 127.886 221.27 128.024C221.642 128.065 221.958 128.093 222.219 128.148C224.611 128.657 245.299 131.893 248.378 130.213C250.233 129.194 250.797 120.491 250.866 116.828L242.192 116.429C242.178 117.076 242.151 118.577 242.055 120.092C241.821 123.989 241.422 124.375 241.037 124.444C237.986 124.953 231.717 124.967 227.649 124.471C226.109 124.278 224.872 123.108 224.583 121.538C224.336 120.244 223.635 119.225 222.494 118.522C222.398 118.467 222.329 118.426 222.288 118.412C222.26 118.55 222.26 118.88 222.26 119.114C222.26 119.913 222.274 121.125 221.573 122.075C220.748 123.19 218.439 122.75 215.263 122.006C214.988 121.979 214.741 121.951 214.521 121.951Z" fill="#651FFF"/>
<path d="M219.195 91.601C219.195 91.601 221.6 90.1138 221.573 89.2463L222.26 84.7984C222.26 84.3853 222.013 84.0272 221.642 83.8895L218.796 82.9118C218.439 82.7879 218.205 82.4299 218.219 82.0305L218.439 78.4915L217.325 77.5C217.243 77.4174 217.229 77.2935 217.298 77.1971L219.057 75.0489C219.635 74.2364 220.212 72.2948 220.679 72.4325C220.679 72.4325 230.714 71.2758 231.195 76.3433C231.264 77.0731 231.044 77.803 230.618 78.4089L229.724 79.662C228.831 80.9289 228.364 82.4712 228.515 84.0135C228.542 84.3302 228.968 86.3958 229.243 87.759C229.408 88.5302 229.834 89.2187 230.453 89.7007C231.236 90.3066 232.185 91.0777 232.034 91.119C232.034 91.119 230.92 91.9315 229.175 92.6613C226.054 93.942 222.521 93.6253 219.635 91.8626L219.195 91.601Z" fill="white"/>
<path d="M225.257 93.7631C223.264 93.7631 221.271 93.2122 219.525 92.1381L219.044 91.849C218.947 91.7939 218.892 91.6975 218.892 91.5873C218.892 91.4772 218.947 91.3808 219.044 91.3257C220.13 90.6509 221.284 89.6732 221.284 89.2463C221.284 89.2326 221.284 89.205 221.284 89.1913L221.972 84.7709C221.972 84.5093 221.807 84.2614 221.559 84.1788L218.714 83.2011C218.219 83.0221 217.903 82.5401 217.93 82.0168L218.136 78.6293L217.133 77.7342C216.927 77.5414 216.899 77.2247 217.078 77.0044L218.837 74.8562C219.03 74.5945 219.236 74.1263 219.442 73.6857C219.868 72.7768 220.212 72.047 220.707 72.1159C221.353 72.047 227.319 71.4686 230.109 73.727C230.948 74.4018 231.415 75.2693 231.511 76.3021C231.594 77.087 231.36 77.8995 230.879 78.5742L229.986 79.8273C229.106 81.0804 228.693 82.5539 228.831 83.9722C228.845 84.1099 228.955 84.7709 229.559 87.6903C229.697 88.3926 230.096 89.0122 230.659 89.4529C232.432 90.8162 232.405 90.9401 232.377 91.1604C232.364 91.2431 232.309 91.3257 232.24 91.367C232.199 91.3945 231.085 92.2208 229.312 92.9506C228.02 93.5014 226.645 93.7631 225.257 93.7631ZM219.772 91.5873L219.827 91.6286C222.631 93.3499 226.095 93.6391 229.092 92.3998C230.315 91.8903 231.236 91.3395 231.649 91.064C231.47 90.8988 231.085 90.5683 230.302 89.9624C229.614 89.4391 229.147 88.6817 228.982 87.828C228.528 85.5696 228.281 84.3027 228.254 84.0411C228.089 82.4713 228.542 80.8601 229.518 79.4831L230.412 78.2299C230.81 77.6654 230.989 77.0044 230.934 76.3709C230.852 75.5034 230.467 74.7873 229.752 74.2227C227.058 72.047 220.817 72.7355 220.748 72.7493C220.721 72.7493 220.707 72.7493 220.693 72.7493C220.528 72.8732 220.212 73.548 220.02 73.9611C219.8 74.4293 219.58 74.9113 219.346 75.2418L217.628 77.3486L218.673 78.285C218.741 78.3539 218.782 78.4365 218.769 78.5329L218.549 82.0719C218.535 82.3198 218.686 82.5539 218.92 82.6365L221.765 83.6142C222.274 83.7932 222.604 84.2752 222.59 84.8122C222.59 84.826 222.59 84.8398 222.59 84.8536L221.903 89.2739C221.875 90.0726 220.528 91.0916 219.772 91.5873Z" fill="#651FFF"/>
<path d="M220.363 64.7212C222.645 64.5973 219.758 66.9658 228.226 64.5284C231.594 63.5507 229.862 67.5166 230.742 67.2688C233.972 66.3461 233.862 66.3737 235.429 66.8006C236.474 67.0897 237.133 69.0314 236.927 70.491C236.652 72.4051 234.508 75.4484 232.583 78.6707C231.594 80.3369 229.821 80.4884 227.69 78.0097C227.456 77.7481 228.625 76.192 228.02 75.5173C226.453 73.7684 225.752 76.4124 224.473 75.5999C223.25 74.815 222.755 74.3192 221.463 73.135C219.91 71.7028 217.284 73.9337 216.377 70.7114C215.923 69.0451 217.229 64.8865 220.363 64.7212Z" fill="#651FFF"/>
<path d="M145.53 240.267C145.53 240.267 146.231 240.267 146.904 239.799C148.98 238.326 153.296 235.035 156.238 235.448C161.173 236.136 161.75 240.171 161.75 240.171C161.75 240.171 165.915 240.019 165.833 242.787C165.764 244.922 164.554 247.621 161.2 249.108C156.609 251.132 152.018 252.688 146.946 249.356C145.956 248.709 144.787 248.406 143.619 248.53C140.774 248.819 98.2845 249.728 98.2845 249.728C88.566 249.728 79.6448 244.33 75.1361 235.695L66.1874 218.579L76.4419 189.854L92.5249 227.295C100.305 237.968 144.719 240.46 145.53 240.267Z" fill="white"/>
<path d="M153.118 251.587C151.056 251.587 148.939 251.05 146.753 249.604C145.818 248.984 144.705 248.709 143.633 248.819C140.801 249.108 100.003 249.989 98.2708 250.031C88.4011 250.031 79.4249 244.591 74.8474 235.847L65.8988 218.73C65.8575 218.648 65.8575 218.565 65.885 218.483L76.1396 189.757C76.1808 189.633 76.2908 189.565 76.4145 189.551C76.5382 189.537 76.6619 189.62 76.7032 189.73L92.7861 227.158C100.346 237.389 143.757 240.185 145.475 239.965C145.502 239.965 145.502 239.965 145.53 239.965C145.544 239.965 146.148 239.951 146.726 239.551L147.207 239.207C149.53 237.541 153.42 234.746 156.279 235.145C160.637 235.751 161.764 238.918 161.998 239.868C162.671 239.882 164.444 240.006 165.448 240.997C165.929 241.479 166.163 242.085 166.135 242.801C166.108 243.862 165.668 247.469 161.31 249.397C158.699 250.54 155.977 251.587 153.118 251.587ZM144.1 248.199C145.145 248.199 146.203 248.516 147.097 249.108C152.059 252.372 156.54 250.843 161.063 248.833C165.077 247.056 165.489 243.751 165.517 242.788C165.53 242.237 165.365 241.796 165.008 241.438C163.977 240.419 161.778 240.488 161.75 240.488H161.736C161.585 240.488 161.461 240.378 161.434 240.226C161.407 240.075 160.815 236.412 156.183 235.765C153.571 235.407 149.654 238.216 147.55 239.717L147.069 240.061C146.327 240.584 145.544 240.584 145.516 240.584C144.458 240.639 133.351 240.033 121.584 238.174C110.477 236.412 96.3738 233.134 92.2637 227.502C92.25 227.489 92.2362 227.461 92.2362 227.447L76.4557 190.721L66.5036 218.579L75.3973 235.572C79.8785 244.123 88.6348 249.439 98.2708 249.439C98.6832 249.425 140.774 248.516 143.578 248.241C143.743 248.199 143.921 248.199 144.1 248.199Z" fill="#651FFF"/>
<path d="M134.368 232.57L138.478 225.368L141.846 227.557C142.038 227.681 142.189 227.846 142.299 228.039L142.506 228.383C142.753 228.824 143.234 229.086 143.729 229.086C144.004 229.086 144.265 229.155 144.499 229.306L169.585 245.583C169.792 245.72 169.984 245.872 170.149 246.065L175.221 251.697L168.17 250.099C167.785 250.017 167.413 249.879 167.056 249.686L140.664 235.861C140.444 235.737 140.251 235.572 140.114 235.351L140.086 235.296C139.825 234.883 139.371 234.621 138.89 234.621H138.643C138.423 234.621 138.203 234.566 137.997 234.456L134.368 232.57Z" fill="white"/>
<path d="M175.208 252C175.18 252 175.166 252 175.139 251.986L168.087 250.389C167.675 250.292 167.276 250.155 166.905 249.948L140.512 236.122C140.238 235.985 140.004 235.764 139.839 235.503L139.811 235.448C139.619 235.117 139.262 234.924 138.89 234.924H138.643C138.368 234.924 138.107 234.856 137.859 234.732L134.244 232.831C134.176 232.79 134.121 232.721 134.093 232.652C134.066 232.57 134.079 232.487 134.121 232.418L138.231 225.216C138.272 225.147 138.341 225.092 138.423 225.065C138.506 225.051 138.588 225.065 138.657 225.106L142.025 227.296C142.244 227.447 142.437 227.64 142.574 227.874L142.781 228.218C142.973 228.562 143.33 228.769 143.729 228.769C143.743 228.769 143.757 228.769 143.757 228.769C144.086 228.769 144.403 228.865 144.678 229.044L169.764 245.321C169.998 245.473 170.204 245.652 170.383 245.858L175.455 251.49C175.551 251.587 175.565 251.738 175.496 251.848C175.414 251.945 175.318 252 175.208 252ZM138.877 234.319C139.468 234.319 140.018 234.635 140.32 235.131L140.348 235.186C140.457 235.351 140.595 235.489 140.774 235.585L167.166 249.411C167.496 249.576 167.84 249.714 168.197 249.797L174.314 251.174L169.888 246.258C169.737 246.092 169.572 245.955 169.393 245.831L144.306 229.554C144.128 229.43 143.921 229.375 143.702 229.375H143.688C143.083 229.375 142.519 229.044 142.217 228.521L142.011 228.177C141.928 228.025 141.805 227.901 141.653 227.805L138.547 225.795L134.753 232.446L138.093 234.195C138.244 234.277 138.423 234.319 138.602 234.319H138.877C138.877 234.319 138.863 234.319 138.877 234.319Z" fill="#651FFF"/>
<path d="M168.307 249.067C168.266 249.067 168.211 249.053 168.17 249.039C168.018 248.956 167.963 248.777 168.032 248.626L169.544 245.707C169.627 245.555 169.805 245.5 169.957 245.569C170.108 245.651 170.163 245.83 170.094 245.982L168.582 248.901C168.527 249.011 168.417 249.067 168.307 249.067Z" fill="#651FFF"/>
<path d="M132.622 221.801L138.602 225.423L134.382 232.611L128.402 228.989C127.302 228.328 126.931 226.91 127.564 225.836L129.488 222.545C130.134 221.471 131.536 221.14 132.622 221.801Z" fill="#651FFF"/>
<path d="M134.395 232.928C134.34 232.928 134.285 232.914 134.23 232.886L128.251 229.265C127.014 228.521 126.588 226.91 127.302 225.698L129.227 222.407C129.571 221.829 130.12 221.416 130.78 221.237C131.454 221.071 132.169 221.168 132.773 221.539L138.753 225.161C138.89 225.244 138.945 225.437 138.863 225.574L134.643 232.762C134.602 232.831 134.533 232.886 134.45 232.9C134.437 232.914 134.409 232.928 134.395 232.928ZM131.426 221.774C131.261 221.774 131.096 221.787 130.945 221.829C130.45 221.953 130.024 222.269 129.777 222.71L127.852 226.001C127.302 226.938 127.632 228.163 128.581 228.741L134.299 232.198L138.203 225.533L132.485 222.077C132.141 221.87 131.784 221.774 131.426 221.774Z" fill="#651FFF"/>
<path d="M140.279 233.905C140.224 233.905 140.169 233.891 140.128 233.864C139.976 233.781 139.935 233.588 140.018 233.437L142.052 230.049C142.134 229.898 142.327 229.857 142.478 229.939C142.629 230.022 142.671 230.215 142.588 230.366L140.554 233.754C140.485 233.85 140.375 233.905 140.279 233.905Z" fill="#651FFF"/>
<path d="M152.279 236.77C152.224 236.77 152.169 236.756 152.114 236.729L144.623 232.019C144.485 231.923 144.43 231.744 144.526 231.592C144.623 231.454 144.801 231.399 144.952 231.496L152.444 236.205C152.582 236.302 152.637 236.481 152.54 236.632C152.485 236.715 152.375 236.77 152.279 236.77Z" fill="#651FFF"/>
<path d="M167.881 246.464C167.826 246.464 167.771 246.45 167.716 246.423L164.788 244.605C164.651 244.509 164.596 244.33 164.692 244.178C164.788 244.04 164.967 243.985 165.118 244.082L168.046 245.899C168.183 245.996 168.238 246.175 168.142 246.326C168.087 246.409 167.991 246.464 167.881 246.464Z" fill="#651FFF"/>
<path d="M133.722 230.036C133.667 230.036 133.612 230.022 133.557 229.995L129.007 227.199C128.869 227.117 128.815 226.924 128.911 226.772C128.993 226.621 129.186 226.579 129.337 226.676L133.887 229.471C134.024 229.554 134.079 229.747 133.983 229.898C133.928 229.981 133.832 230.036 133.722 230.036Z" fill="white"/>
<path d="M145.53 240.268C145.53 240.268 151.647 239.51 155.551 240.047C158.589 240.474 167.578 238.312 165.695 244.137C165.297 245.39 165.077 246.23 163.963 247.415C163.358 248.062 161.695 249.398 160.747 249.811C156.156 251.835 151.99 252.689 146.918 249.356C145.942 248.709 144.774 248.42 143.605 248.53C142.932 248.599 145.31 240.323 145.53 240.268Z" fill="white"/>
<path d="M153.75 251.89C151.509 251.89 149.227 251.229 146.739 249.59C145.818 248.984 144.719 248.709 143.633 248.819C142.89 248.888 140.485 248.984 140.389 248.984C140.224 248.998 140.073 248.86 140.073 248.681C140.073 248.516 140.196 248.364 140.375 248.364C140.402 248.364 142.849 248.282 143.578 248.199C144.801 248.075 146.052 248.378 147.083 249.067C151.949 252.261 155.867 251.6 160.623 249.507C161.503 249.122 163.138 247.827 163.743 247.18C164.733 246.134 164.967 245.39 165.324 244.275L165.407 244.027C165.75 242.953 165.723 242.154 165.31 241.603C164.403 240.378 161.681 240.46 159.29 240.529C157.791 240.57 156.362 240.612 155.454 240.322C150.836 238.877 145.667 240.529 145.626 240.543C145.365 240.598 144.705 240.584 143.138 240.474C142.973 240.46 142.835 240.322 142.849 240.143C142.863 239.978 143 239.84 143.179 239.854C144.54 239.951 145.31 239.978 145.461 239.937C145.653 239.868 150.822 238.229 155.647 239.717C156.458 239.964 157.832 239.937 159.276 239.896C161.819 239.827 164.705 239.744 165.805 241.217C166.341 241.934 166.396 242.925 165.998 244.192L165.915 244.44C165.544 245.597 165.283 246.423 164.197 247.579C163.565 248.254 161.86 249.618 160.884 250.044C158.41 251.174 156.1 251.89 153.75 251.89Z" fill="#651FFF"/>
<path d="M51.3829 169.748C51.3829 169.748 70.2426 172.255 76.497 179.897C84.4285 189.578 87.8513 203.968 88.951 210.179C89.2809 212.01 89.2396 213.883 88.841 215.687L88.3736 217.766C86.7516 225.092 80.071 230.173 72.5931 229.788H72.9643C71.7546 229.719 69.9951 229.32 69.4728 228.218L67.4933 224.596L67.3009 225.905C65.8163 235.544 73.5828 248.736 73.5828 248.736L51.2867 245.72C39.8225 244.564 28.9218 240.047 20.1793 232.542C15.4232 228.466 11.753 224.651 10.1722 220.025C7.47796 212.162 7.72539 209.931 6.96936 200.388C6.46075 193.902 8.35771 187.402 12.4265 182.321C18.4198 174.857 29.9116 167.022 51.3829 169.748Z" fill="white"/>
<path d="M73.5966 249.039C73.5828 249.039 73.5691 249.039 73.5553 249.039L51.2592 246.023C39.5338 244.839 28.7294 240.267 20.0006 232.776C15.7668 229.141 11.6018 225.092 9.91101 220.135C7.6429 213.498 7.45046 210.854 6.99684 204.478C6.91436 203.28 6.81814 201.944 6.69443 200.416C6.17207 193.737 8.12402 187.251 12.2203 182.142C18.0762 174.816 29.6229 166.678 51.4379 169.446C52.2077 169.542 70.49 172.048 76.7444 179.705C85.157 189.978 88.4561 205.579 89.2671 210.124C89.597 211.997 89.5695 213.897 89.1434 215.756L88.676 217.835C87.0127 225.34 80.2359 230.49 72.5794 230.091C72.5244 230.091 72.4831 230.077 72.4419 230.05C71.1085 229.898 69.6927 229.389 69.2116 228.356L67.6858 225.56L67.6308 225.96C66.1737 235.379 73.8028 248.461 73.8715 248.585C73.9265 248.681 73.9265 248.819 73.8577 248.915C73.8028 248.984 73.7065 249.039 73.5966 249.039ZM43.0253 169.501C26.7912 169.501 17.65 176.303 12.674 182.514C8.68761 187.499 6.7769 193.847 7.28551 200.36C7.40922 201.889 7.50544 203.225 7.58792 204.423C8.04154 210.743 8.22024 213.346 10.4746 219.915C12.1241 224.734 16.2205 228.714 20.3855 232.294C29.0181 239.703 39.7125 244.233 51.3279 245.404L73.0192 248.337C71.5622 245.72 65.6788 234.484 67.0122 225.85L67.2046 224.541C67.2184 224.404 67.3284 224.307 67.4521 224.28C67.5758 224.252 67.7133 224.321 67.782 224.431L69.7614 228.053C70.2013 228.989 71.7821 229.389 72.9917 229.458C73.0192 229.458 73.0467 229.471 73.0742 229.471C80.2359 229.637 86.5179 224.734 88.0849 217.67L88.5523 215.591C88.9509 213.814 88.9922 211.997 88.6623 210.206C87.8513 205.703 84.5797 190.225 76.2633 180.063C70.1463 172.599 51.5341 170.052 51.3417 170.024C48.3863 169.68 45.6096 169.501 43.0253 169.501Z" fill="#651FFF"/>
<path d="M68.7855 228.301C68.6755 228.301 68.5655 228.232 68.5106 228.122L63.2321 217.023C63.1633 216.871 63.2183 216.692 63.3833 216.61C63.5345 216.541 63.7132 216.596 63.7957 216.761L69.0741 227.874C69.1429 228.025 69.0879 228.204 68.9229 228.287C68.868 228.301 68.8267 228.301 68.7855 228.301Z" fill="#651FFF"/>
<path d="M54.3382 131.921L55.7266 130.999C56.84 130.255 57.3074 128.851 56.84 127.597C55.4517 123.838 50.3794 117.27 31.9321 122.254C13.1275 127.336 16.454 157.576 32.4682 164.034C48.4961 170.492 53.9396 137.278 53.9396 137.278L54.3382 131.921Z" fill="#651FFF"/>
<path d="M52.029 132.61C52.2489 131.453 53.7748 131.205 54.3521 132.224C55.7542 134.703 56.4278 136.424 56.6614 137.471C56.9639 138.889 55.658 140.294 56.359 141.809C57.0601 143.323 58.1735 145.045 58.2697 147.771C58.366 150.429 61.0602 162.643 51.6029 162.258C51.2317 162.244 50.9156 162.533 50.9293 162.905C50.9568 164.764 51.053 169.873 51.4654 172.641C51.6854 174.142 50.7506 175.588 49.2935 176.001C45.4996 177.075 38.4479 178.576 33.1694 176.868C31.7948 176.428 31.08 174.913 31.5611 173.549C32.1797 171.814 33.0594 166.94 32.4821 164.034C32.4821 164.034 35.6437 163.717 39.1627 162.106C44.5786 159.614 47.2316 153.569 45.7471 147.785C45.4309 146.546 44.7298 144.783 45.4584 142.91C47.3279 138.09 50.1183 142.938 50.1183 142.938L52.029 132.61Z" fill="white"/>
<path d="M38.7228 177.942C36.7571 177.942 34.8189 177.722 33.0594 177.144C32.3171 176.91 31.726 176.386 31.3824 175.684C31.0387 174.982 30.9975 174.169 31.2586 173.426C31.8635 171.746 32.7295 166.926 32.1659 164.076C32.1521 163.993 32.1659 163.897 32.2209 163.828C32.2759 163.759 32.3446 163.718 32.4408 163.704C32.4683 163.704 35.6024 163.373 39.0252 161.803C44.2212 159.421 46.9154 153.541 45.4309 147.84C45.3896 147.675 45.3346 147.496 45.2934 147.317C44.9497 146.119 44.4961 144.494 45.1559 142.773C45.7333 141.299 46.4618 140.514 47.3553 140.445C48.4412 140.363 49.4172 141.409 49.9533 142.112L51.7403 132.541C51.864 131.894 52.3589 131.398 53.0187 131.288C53.6785 131.178 54.3108 131.481 54.6407 132.059C56.2215 134.841 56.7851 136.493 56.9776 137.388C57.1288 138.091 56.9363 138.765 56.7439 139.413C56.5239 140.184 56.304 140.914 56.6477 141.657C56.7576 141.905 56.8951 142.167 57.0188 142.428C57.6786 143.75 58.5034 145.389 58.5859 147.73C58.5996 148.047 58.6546 148.542 58.7096 149.121C59.0395 152.123 59.658 157.727 56.9088 160.674C55.6717 162.01 53.8709 162.63 51.5891 162.533C51.4929 162.533 51.3967 162.561 51.3279 162.63C51.2592 162.698 51.2317 162.781 51.2317 162.878C51.2592 164.888 51.3554 169.859 51.7678 172.572C52.0152 174.224 50.9843 175.808 49.376 176.262C46.8055 177.02 42.7366 177.942 38.7228 177.942ZM32.8257 164.296C33.2931 167.312 32.4546 171.938 31.836 173.66C31.6298 174.252 31.6573 174.872 31.9322 175.436C32.2071 175.987 32.6607 176.386 33.2518 176.579C38.4616 178.273 45.4858 176.772 49.1973 175.712C50.5169 175.34 51.3554 174.045 51.1492 172.696C50.7368 169.942 50.6406 164.943 50.6131 162.919C50.6131 162.657 50.7093 162.409 50.9018 162.23C51.0942 162.051 51.3417 161.955 51.6166 161.955C53.7197 162.037 55.3555 161.473 56.469 160.289C59.012 157.548 58.4209 152.137 58.1047 149.231C58.036 148.625 57.981 148.143 57.9673 147.799C57.8848 145.596 57.1288 144.081 56.469 142.745C56.3315 142.47 56.2078 142.208 56.0841 141.96C55.6442 141.01 55.9054 140.087 56.139 139.289C56.3177 138.683 56.4827 138.104 56.359 137.554C56.2078 136.851 55.7129 135.254 54.0909 132.39C53.8435 131.963 53.4173 131.866 53.1012 131.921C52.785 131.977 52.4139 132.197 52.3314 132.679L50.4069 142.993C50.3794 143.117 50.2832 143.213 50.1595 143.241C50.0358 143.268 49.9121 143.199 49.8433 143.089C49.4997 142.511 48.4137 141.01 47.3965 141.079C46.7642 141.134 46.2006 141.781 45.7333 143.02C45.1422 144.549 45.5546 145.995 45.8845 147.179C45.9395 147.372 45.9944 147.551 46.0357 147.716C47.589 153.706 44.7435 159.876 39.2864 162.396C36.3722 163.718 33.7329 164.172 32.8257 164.296Z" fill="#651FFF"/>
<path d="M24.3581 128.355C24.3581 128.355 15.107 123.934 8.3714 130.255C1.63583 136.576 -4.87981 150.484 5.20981 165.659C11.5605 175.188 13.9935 182.734 14.9283 187.017C15.2444 188.449 17.1139 188.807 17.9387 187.595C22.0075 181.481 29.4166 168 25.8289 155.345C20.9903 138.269 24.3581 128.355 24.3581 128.355Z" fill="#651FFF"/>
<path d="M58.2971 146.573C58.1871 146.573 58.0909 146.518 58.0359 146.422C57.9534 146.27 57.9947 146.091 58.1459 145.995C61.1838 144.163 59.2181 139.013 58.6682 137.732L50.0769 142.125C49.9257 142.208 49.747 142.139 49.6646 141.987C49.5821 141.836 49.6508 141.657 49.802 141.574L58.682 137.03C58.7507 136.989 58.8469 136.989 58.9157 137.016C58.9981 137.044 59.0531 137.099 59.0944 137.168C59.2318 137.457 62.3934 144.149 58.462 146.504C58.4071 146.559 58.3521 146.573 58.2971 146.573Z" fill="#651FFF"/>
<path d="M58.5445 150.112C58.4621 150.112 58.3933 150.085 58.3246 150.016C58.2009 149.892 58.2009 149.699 58.3246 149.575L59.5343 148.377C59.9054 148.005 59.9466 147.441 59.6442 147.014L58.8057 145.843C58.7095 145.706 58.737 145.513 58.8744 145.416C59.0119 145.32 59.2043 145.348 59.3006 145.485L60.1391 146.656C60.6202 147.331 60.5377 148.226 59.9604 148.818L58.7507 150.016C58.6957 150.085 58.6133 150.112 58.5445 150.112Z" fill="#651FFF"/>
<path d="M48.7986 151.173C48.6062 151.173 48.3862 151.145 48.1663 151.09C47.1216 150.828 46.2143 149.933 45.4858 148.418C45.4171 148.267 45.4721 148.088 45.6233 148.005C45.7745 147.937 45.9532 147.992 46.0356 148.143C46.6817 149.479 47.4377 150.264 48.3037 150.484C49.2247 150.718 49.967 150.195 49.9808 150.181C50.1182 150.085 50.3107 150.112 50.4069 150.25C50.5031 150.388 50.4756 150.58 50.3382 150.677C50.3107 150.704 49.6784 151.173 48.7986 151.173Z" fill="#651FFF"/>
<path d="M22.035 127.528C22.035 127.528 30.6401 130.117 27.1211 138.38C27.1211 138.38 31.0937 135.502 30.9975 131.026C30.9013 126.551 27.5747 125.077 25.3616 125.132C23.1485 125.187 22.035 127.528 22.035 127.528Z" fill="white"/>
<path d="M27.1074 138.682C27.0386 138.682 26.9699 138.655 26.9149 138.614C26.8049 138.531 26.7637 138.38 26.8187 138.256C27.8222 135.901 27.9046 133.808 27.0799 132.031C25.6503 128.974 21.9801 127.831 21.9388 127.818C21.8564 127.79 21.7876 127.735 21.7464 127.652C21.7051 127.57 21.7051 127.473 21.7464 127.391C21.8014 127.294 22.956 124.871 25.3341 124.816C26.695 124.788 28.0833 125.27 29.1418 126.138C30.0903 126.909 31.2174 128.382 31.2724 131.012C31.3824 135.612 27.4373 138.503 27.2723 138.627C27.2311 138.669 27.1761 138.682 27.1074 138.682ZM22.4749 127.349C23.4921 127.735 26.3513 129.016 27.6297 131.77C28.3995 133.422 28.4545 135.295 27.8084 137.347C28.9356 136.231 30.7363 133.973 30.6676 131.026C30.6264 129.126 29.9665 127.597 28.7569 126.606C27.8221 125.835 26.5438 125.408 25.3479 125.421C23.822 125.477 22.8461 126.757 22.4749 127.349Z" fill="#651FFF"/>
<path d="M5.6359 198.157C12.7289 202.454 27.1623 208.582 50.4069 207.163C52.1114 207.053 53.6922 208.072 54.297 209.683L55.7403 215.494C58.2834 225.712 63.0808 235.227 69.7613 243.352L73.2254 247.566C73.7615 248.213 73.2528 249.191 72.4143 249.122L57.1012 247.993C30.805 244.509 10.3783 231.303 3.83516 207.232L2.08941 200.815C1.52582 198.736 3.78018 197.042 5.6359 198.157Z" fill="#651FFF"/>
<path d="M150.135 34.4536H200.569C203.428 34.4536 205.614 36.7808 205.614 39.6451V54.2693C205.614 57.1336 203.428 59.4471 200.569 59.4471C200.542 59.4471 199.772 59.4471 198.741 59.4471V69.2103L192.101 59.4471C182.452 59.4471 150.121 59.4471 150.121 59.4471C147.262 59.4471 144.815 57.1336 144.815 54.2693V39.6451C144.842 36.7808 147.275 34.4536 150.135 34.4536Z" fill="white"/>
<path d="M198.755 69.5135C198.658 69.5135 198.562 69.4584 198.507 69.3758L191.964 59.7502H150.148C147.111 59.7502 144.54 57.244 144.54 54.2696V39.6453C144.54 36.6709 147.111 34.1509 150.148 34.1509H200.583C203.579 34.1509 205.93 36.5607 205.93 39.6453V54.2696C205.93 57.3404 203.579 59.7502 200.583 59.7502H199.071V69.2105C199.071 69.3483 198.988 69.4584 198.851 69.4997C198.81 69.5135 198.782 69.5135 198.755 69.5135ZM150.135 34.7706C147.427 34.7706 145.145 37.0014 145.145 39.6453V54.2696C145.145 56.8997 147.427 59.1305 150.135 59.1305H192.115C192.211 59.1305 192.308 59.1856 192.363 59.2683L198.438 68.2053V59.4335C198.438 59.2683 198.576 59.1305 198.741 59.1305H200.569C203.222 59.1305 205.298 56.9961 205.298 54.2696V39.6453C205.298 36.905 203.222 34.7706 200.569 34.7706H150.135Z" fill="#651FFF"/>
<path d="M169.077 50.5792C169.035 50.5792 168.994 50.5654 168.953 50.5516L162.011 47.3982C161.901 47.3431 161.833 47.233 161.833 47.1228C161.833 46.9989 161.901 46.8887 162.011 46.8474L168.953 43.6664C169.104 43.5975 169.283 43.6664 169.365 43.8179C169.434 43.9694 169.365 44.1484 169.214 44.231L162.877 47.1228L169.214 50.0008C169.365 50.0697 169.434 50.2487 169.365 50.4139C169.31 50.5103 169.2 50.5792 169.077 50.5792Z" fill="#651FFF"/>
<path d="M179.029 50.5793C178.919 50.5793 178.795 50.5104 178.754 50.4003C178.685 50.2488 178.754 50.0698 178.905 49.9872L185.242 47.1091L178.905 44.2173C178.754 44.1485 178.685 43.9695 178.754 43.8042C178.823 43.6527 179.001 43.5839 179.166 43.6527L186.108 46.8337C186.218 46.8888 186.287 46.999 186.287 47.1091C186.287 47.2331 186.218 47.3432 186.108 47.3845L179.166 50.538C179.111 50.5655 179.07 50.5793 179.029 50.5793Z" fill="#651FFF"/>
<path d="M171.166 54.2836C171.125 54.2836 171.097 54.2836 171.056 54.2698C170.891 54.2147 170.823 54.0357 170.878 53.8705L176.28 39.7006C176.335 39.5354 176.513 39.4665 176.678 39.5216C176.83 39.5767 176.912 39.7557 176.857 39.9209L171.455 54.0908C171.4 54.2009 171.29 54.2836 171.166 54.2836Z" fill="#651FFF"/>
<path d="M161.242 225.216C161.118 225.216 161.008 225.147 160.967 225.037C160.898 224.886 160.967 224.707 161.118 224.638C176.94 217.615 191.29 206.241 202.604 191.74C202.713 191.603 202.906 191.589 203.03 191.685C203.167 191.795 203.181 191.988 203.085 192.112C191.703 206.695 177.269 218.125 161.365 225.189C161.324 225.203 161.283 225.216 161.242 225.216Z" fill="#651FFF"/>
<path d="M159.729 233.313C159.606 233.313 159.496 233.244 159.441 233.12C159.386 232.969 159.454 232.79 159.619 232.721C174.836 226.814 188.472 217.436 200.143 204.85C200.253 204.726 200.459 204.712 200.583 204.836C200.706 204.946 200.72 205.139 200.597 205.277C188.857 217.932 175.153 227.351 159.839 233.299C159.798 233.299 159.757 233.313 159.729 233.313Z" fill="#651FFF"/>
<path d="M92.6624 10.3966C92.525 10.3966 92.4013 10.3002 92.36 10.1625C92.3188 9.99724 92.4287 9.83199 92.5937 9.79068C108.429 6.12773 124.127 5.87986 139.234 9.06084C139.399 9.10215 139.509 9.25363 139.468 9.41888C139.427 9.58412 139.275 9.69428 139.11 9.65297C124.086 6.49953 108.484 6.7474 92.7449 10.3828C92.7174 10.3966 92.6899 10.3966 92.6624 10.3966Z" fill="#651FFF"/>
<path d="M145.117 3.99349C145.09 3.99349 145.062 3.99349 145.035 3.97972C132.1 0.619718 118.56 -0.234052 104.786 1.45972C104.622 1.47349 104.47 1.36332 104.443 1.19808C104.429 1.03283 104.539 0.881358 104.704 0.853817C118.56 -0.853724 132.182 4.62015e-05 145.2 3.38759C145.365 3.4289 145.461 3.59414 145.42 3.75939C145.379 3.89709 145.255 3.99349 145.117 3.99349Z" fill="#651FFF"/>
<path d="M153.805 227.929C154.936 227.929 155.853 227.011 155.853 225.877C155.853 224.744 154.936 223.826 153.805 223.826C152.674 223.826 151.757 224.744 151.757 225.877C151.757 227.011 152.674 227.929 153.805 227.929Z" fill="#651FFF"/>
<path d="M11.1207 105.909C11.0382 105.909 10.9695 105.881 10.9145 105.826C10.7908 105.702 10.7908 105.509 10.9008 105.385L12.028 104.201C12.1517 104.077 12.3441 104.077 12.4678 104.187C12.5915 104.311 12.5915 104.504 12.4816 104.628L11.3544 105.812C11.2857 105.867 11.2032 105.909 11.1207 105.909Z" fill="#651FFF"/>
<path d="M7.17553 110.04C7.09305 110.04 7.02432 110.013 6.96934 109.957C6.84562 109.834 6.84562 109.641 6.95559 109.517L8.08277 108.333C8.20648 108.209 8.39893 108.209 8.52264 108.319C8.64636 108.443 8.64636 108.635 8.53639 108.759L7.40921 109.944C7.34048 109.999 7.258 110.04 7.17553 110.04Z" fill="#651FFF"/>
<path d="M8.28897 105.964C8.2065 105.964 8.13777 105.936 8.06904 105.881L6.92811 104.752C6.8044 104.628 6.8044 104.435 6.92811 104.311C7.05183 104.187 7.24427 104.187 7.36799 104.311L8.50891 105.44C8.63263 105.564 8.63263 105.757 8.50891 105.881C8.44018 105.936 8.3577 105.964 8.28897 105.964Z" fill="#651FFF"/>
<path d="M12.2891 109.916C12.2066 109.916 12.1379 109.888 12.0692 109.833L10.9282 108.704C10.8045 108.58 10.8045 108.387 10.9282 108.263C11.0519 108.139 11.2444 108.139 11.3681 108.263L12.509 109.393C12.6327 109.516 12.6327 109.709 12.509 109.833C12.454 109.888 12.3716 109.916 12.2891 109.916Z" fill="#651FFF"/>
<path d="M151.344 9.66709C150.973 9.66709 150.616 9.59824 150.258 9.46054C149.489 9.15758 148.884 8.57922 148.554 7.80808C147.88 6.23824 148.581 4.40676 150.107 3.71824C150.849 3.38775 151.674 3.36021 152.417 3.66316C153.186 3.96611 153.791 4.54447 154.121 5.31562C154.795 6.88545 154.094 8.71693 152.568 9.40545C152.169 9.58447 151.757 9.66709 151.344 9.66709ZM151.331 4.0625C151.001 4.0625 150.671 4.13135 150.355 4.26906C149.117 4.81988 148.568 6.29332 149.104 7.56021C149.365 8.17988 149.846 8.64808 150.465 8.88217C151.069 9.11627 151.715 9.1025 152.307 8.84086C153.544 8.29004 154.094 6.8166 153.557 5.54972C153.296 4.93004 152.815 4.46185 152.197 4.22775C151.922 4.11758 151.633 4.0625 151.331 4.0625Z" fill="#651FFF"/>
</g>
<defs>
<clipPath id="clip0_656_18732">
<rect width="254" height="252" fill="white"/>
</clipPath>
</defs>
</svg>
