<svg width="64" height="64" viewBox="0 0 64 64" fill="none" xmlns="http://www.w3.org/2000/svg">
<circle cx="32" cy="32" r="32" fill="#651FFF"/>
<g clip-path="url(#clip0_775_527)">
<path d="M32 21C32 20.4475 32.45 20 33 20H35C35.55 20 36 20.4475 36 21V23C36 23.55 35.55 24 35 24H33C32.45 24 32 23.55 32 23V21ZM23 28C23.55 28 24 28.45 24 29V31C24 31.55 23.55 32 23 32H21C20.4475 32 20 31.55 20 31V29C20 28.45 20.4475 28 21 28H23ZM33 36C32.45 36 32 35.55 32 35V33C32 32.45 32.45 32 33 32H35C35.55 32 36 32.45 36 33V35C36 35.55 35.55 36 35 36H33ZM23 34C23.55 34 24 34.45 24 35V37C24 37.55 23.55 38 23 38H21C20.4475 38 20 37.55 20 37V35C20 34.45 20.4475 34 21 34H23ZM40 33C40 32.45 40.45 32 41 32H43C43.55 32 44 32.45 44 33V35C44 35.55 43.55 36 43 36H41C40.45 36 40 35.55 40 35V33ZM43 20C43.55 20 44 20.4475 44 21V23C44 23.55 43.55 24 43 24H41C40.45 24 40 23.55 40 23V21C40 20.4475 40.45 20 41 20H43ZM32 27C32 26.45 32.45 26 33 26H35C35.55 26 36 26.45 36 27V29C36 29.55 35.55 30 35 30H33C32.45 30 32 29.55 32 29V27ZM41 30C40.45 30 40 29.55 40 29V27C40 26.45 40.45 26 41 26H43C43.55 26 44 26.45 44 27V29C44 29.55 43.55 30 43 30H41Z" fill="white"/>
<path opacity="0.4" d="M44 16C46.2062 16 48 17.7906 48 20V44C48 46.2062 46.2062 48 44 48H20C17.7906 48 16 46.2062 16 44V28C16 25.7937 17.7906 24 20 24H28V20C28 17.7906 29.7937 16 32 16H44ZM20 37C20 37.55 20.4475 38 21 38H23C23.55 38 24 37.55 24 37V35C24 34.45 23.55 34 23 34H21C20.4475 34 20 34.45 20 35V37ZM35 36C35.55 36 36 35.55 36 35V33C36 32.45 35.55 32 35 32H33C32.45 32 32 32.45 32 33V35C32 35.55 32.45 36 33 36H35ZM40 35C40 35.55 40.45 36 41 36H43C43.55 36 44 35.55 44 35V33C44 32.45 43.55 32 43 32H41C40.45 32 40 32.45 40 33V35ZM21 28C20.4475 28 20 28.45 20 29V31C20 31.55 20.4475 32 21 32H23C23.55 32 24 31.55 24 31V29C24 28.45 23.55 28 23 28H21ZM32 23C32 23.55 32.45 24 33 24H35C35.55 24 36 23.55 36 23V21C36 20.4475 35.55 20 35 20H33C32.45 20 32 20.4475 32 21V23ZM41 20C40.45 20 40 20.4475 40 21V23C40 23.55 40.45 24 41 24H43C43.55 24 44 23.55 44 23V21C44 20.4475 43.55 20 43 20H41ZM32 29C32 29.55 32.45 30 33 30H35C35.55 30 36 29.55 36 29V27C36 26.45 35.55 26 35 26H33C32.45 26 32 26.45 32 27V29ZM43 30C43.55 30 44 29.55 44 29V27C44 26.45 43.55 26 43 26H41C40.45 26 40 26.45 40 27V29C40 29.55 40.45 30 41 30H43Z" fill="white"/>
</g>
<defs>
<clipPath id="clip0_775_527">
<rect width="32" height="32" fill="white" transform="translate(16 16)"/>
</clipPath>
</defs>
</svg>
