<svg width="24" height="24" viewBox="0 0 24 24" fill="none" xmlns="http://www.w3.org/2000/svg">
<circle cx="12" cy="12" r="12" fill="#ECECFE"/>
<g clip-path="url(#clip0_656_18708)">
<path opacity="0.4" d="M18.7949 8.94914L12.2393 15.5412L10.25 13.5475L16.8155 6.95769C16.88 6.89267 16.9566 6.84099 17.0411 6.80561C17.1256 6.77022 17.2162 6.75183 17.3077 6.75147C17.3993 6.75111 17.49 6.76881 17.5748 6.80353C17.6595 6.83826 17.7365 6.88934 17.8015 6.95386L17.8054 6.95769L18.7949 7.95328C18.9263 8.08571 19 8.26468 19 8.45121C19 8.63773 18.9263 8.8167 18.7949 8.94914Z" fill="#651FFF"/>
<path d="M12.2371 15.5434L10.745 17.0437C10.6147 17.175 10.4377 17.2491 10.2528 17.2499C10.0679 17.2506 9.89023 17.1778 9.75896 17.0476L9.75513 17.0437L5.20513 12.4675C5.07374 12.3351 5 12.1562 5 11.9697C5 11.7832 5.07374 11.6043 5.20513 11.4719L6.19498 10.4763C6.32502 10.3454 6.50167 10.2714 6.6862 10.2705C6.87073 10.2696 7.04808 10.342 7.17935 10.4717L7.18373 10.4763L12.2371 15.5434Z" fill="#651FFF"/>
</g>
<defs>
<clipPath id="clip0_656_18708">
<rect width="14" height="14" fill="white" transform="translate(5 5)"/>
</clipPath>
</defs>
</svg>
